HIERARCHY
ROOT hip
{
	OFFSET 0.000000 0.000000 0.000000 
	CHANNELS 6 Xposition Yposition Zposition Xrotation Zrotation Yrotation
	JOINT abdomen
	{
		OFFSET 0.000000 3.402643 0.000000 
		CHANNELS 3 Xrotation Zrotation Yrotation
		JOINT chest
		{
			OFFSET 0.000000 8.438565 -0.680529 
			CHANNELS 3 Xrotation Zrotation Yrotation
			JOINT neck
			{
				OFFSET 0.000000 10.207942 -0.272212 
				CHANNELS 3 Xrotation Zrotation Yrotation
				JOINT head
				{
					OFFSET 0.000000 3.130431 0.000000 
					CHANNELS 3 Xrotation Zrotation Yrotation
					End Site
					{
						OFFSET 0.000000 3.130435 0.000000 
					}
				}
			}
			JOINT lCollar
			{
				OFFSET 3.470700 6.669187 -0.816635 
				CHANNELS 3 Yrotation Zrotation Xrotation
				JOINT lShldr
				{
					OFFSET 3.198488 0.000000 0.000000 
					CHANNELS 3 Zrotation Yrotation Xrotation
					JOINT lForeArm
					{
						OFFSET 10.139888 0.000000 0.000000 
						CHANNELS 3 Yrotation Zrotation Xrotation
						JOINT lHand
						{
							OFFSET 8.370511 0.000000 0.000000 
							CHANNELS 3 Zrotation Yrotation Xrotation
							End Site
							{
								OFFSET 4.083176 0.000000 0.000000 
							}
						}
					}
				}
			}
			JOINT rCollar
			{
				OFFSET -3.470700 6.669187 -0.816635 
				CHANNELS 3 Yrotation Zrotation Xrotation
				JOINT rShldr
				{
					OFFSET -3.198488 0.000000 0.000000 
					CHANNELS 3 Zrotation Yrotation Xrotation
					JOINT rForeArm
					{
						OFFSET -10.139888 0.000000 0.000000 
						CHANNELS 3 Yrotation Zrotation Xrotation
						JOINT rHand
						{
							OFFSET -8.370511 0.000000 0.000000 
							CHANNELS 3 Zrotation Yrotation Xrotation
							End Site
							{
								OFFSET -4.083176 0.000000 0.000000 
							}
						}
					}
				}
			}
		}
	}
	JOINT lThigh
	{
		OFFSET 5.308129 -1.633274 1.361059 
		CHANNELS 3 Xrotation Zrotation Yrotation
		JOINT lShin
		{
			OFFSET -2.041588 -20.007561 0.000000 
			CHANNELS 3 Xrotation Zrotation Yrotation
			JOINT lFoot
			{
				OFFSET 0.000000 -19.190928 -1.224953 
				CHANNELS 3 Xrotation Yrotation Zrotation
				End Site
				{
					OFFSET 0.000000 -2.449906 4.627600 
				}
			}
		}
	}
	JOINT rThigh
	{
		OFFSET -5.308129 -1.633274 1.361059 
		CHANNELS 3 Xrotation Zrotation Yrotation
		JOINT rShin
		{
			OFFSET 2.041588 -20.007561 0.000000 
			CHANNELS 3 Xrotation Zrotation Yrotation
			JOINT rFoot
			{
				OFFSET 0.000000 -19.190928 -1.224953 
				CHANNELS 3 Xrotation Yrotation Zrotation
				End Site
				{
					OFFSET 0.000000 -2.449906 4.627600 
				}
			}
		}
	}
}
MOTION
Frames: 13
Frame Time: 0.011111
29.386658 48.368084 -40.738300 -8.494493 -4.451977 43.964336 20.289713 -10.346914 11.698445 -4.222464 -0.829810 3.954684 -0.164900 -18.874987 -19.920233 11.755237 44.886620 -37.388802 1.452834 -1.250150 0.768655 -48.960125 -14.443958 -1.377061 -68.801773 10.166031 15.348152 6.992188 16.005859 -39.030510 -6.408587 0.914528 1.823621 20.579954 56.168861 -56.868366 40.857021 -5.188262 3.769259 -7.001954 -15.996095 33.671875 -30.484373 4.374401 0.217850 48.519943 -4.798017 -3.723438 -17.870399 -0.056221 -0.269767 -21.610250 -9.003170 -11.572878 48.324131 4.787281 3.701046 -12.033616 11.926306 3.444901 
29.440407 48.292282 -40.556812 -8.183422 -3.978420 43.043613 20.662868 -11.013803 11.668183 -4.310103 -0.901302 4.005677 -0.310198 -18.650850 -19.766741 10.588495 44.282677 -37.599369 1.452834 -1.250150 0.768655 -48.694881 -14.171307 -1.018465 -68.460182 10.180743 15.186885 6.992188 16.005859 -38.962147 -6.408587 0.914528 1.823621 20.299299 57.109417 -59.763348 40.998550 -5.236551 3.814008 -7.001954 -15.996095 30.947262 -30.367237 3.866717 -0.306635 49.573814 -4.766491 -3.791459 -19.226023 0.366027 -0.031155 -23.208876 -10.348651 -11.647245 50.747940 4.697113 3.875489 -9.495757 13.645517 3.427834 
29.487518 48.199276 -40.370190 -7.891826 -3.493155 42.184425 21.067682 -11.631923 11.530849 -4.368551 -0.906851 4.016484 -0.621278 -18.725367 -19.510597 9.858770 44.018280 -37.477566 1.452834 -1.250150 0.768655 -48.223911 -13.850403 -0.691328 -67.987656 10.191666 14.964265 6.992188 16.005859 -38.649651 -6.408587 0.914528 1.823621 19.581423 58.141815 -63.052795 40.563217 -5.076752 3.658151 -7.001954 -15.996095 27.929688 -30.250553 3.437151 -0.501702 50.401917 -4.727539 -3.846569 -19.674313 0.412570 0.028840 -24.949833 -11.688448 -11.328125 53.229687 4.591920 4.071355 -5.582182 14.559820 2.764441 
29.531303 48.137074 -40.147934 -7.811835 -2.819474 41.402599 21.776617 -12.311090 11.471241 -4.514637 -0.934907 4.068202 -1.019448 -18.721462 -19.354630 9.296091 43.576347 -37.516800 1.452834 -1.250150 0.768655 -47.586956 -13.666635 -0.143662 -67.484840 10.203671 14.740357 6.992188 16.005859 -38.327389 -6.408587 0.914528 1.823621 19.052401 58.898388 -65.658440 40.209946 -4.953332 3.540404 -7.001954 -15.996095 25.351564 -29.701040 3.124401 -0.350712 51.041630 -4.710522 -3.893601 -19.941172 0.129771 -0.060225 -26.304314 -12.926424 -10.666951 55.502220 4.501817 4.224370 -2.358423 15.437580 2.131844 
29.572674 48.054932 -39.909973 -7.880477 -2.100744 40.680161 22.701038 -12.906857 11.401573 -4.728901 -1.016376 4.122337 -1.261524 -18.686073 -19.327366 8.387754 43.052643 -37.899181 1.452834 -1.250150 0.768655 -47.529507 -14.116012 -0.434938 -66.808128 10.206985 14.423414 6.992188 16.005859 -38.971916 -6.408587 0.914528 1.823621 18.612783 59.341331 -66.629791 40.189301 -4.939835 3.535925 -7.001954 -15.996095 24.248047 -29.002684 2.910047 -0.157228 51.593262 -4.688810 -3.945110 -20.397636 -0.319867 -0.178169 -27.367985 -14.029307 -9.923994 57.440239 4.404200 4.356945 -0.547871 16.789173 1.804417 
29.599852 47.967964 -39.663563 -7.803972 -1.504068 39.912617 23.365000 -13.547587 11.390427 -4.982085 -0.928408 4.183789 -1.251148 -18.594971 -19.332312 7.281617 42.285122 -38.329517 1.452834 -1.250150 0.768655 -47.423119 -14.575286 -0.465367 -65.885025 10.200696 13.996124 6.992188 16.005859 -39.899654 -6.408587 0.914528 1.823621 18.085505 59.550167 -67.143112 40.088287 -4.902086 3.499676 -7.001954 -15.996095 23.369141 -28.488306 2.782397 0.360141 52.085552 -4.669532 -3.975188 -20.951797 -0.480237 -0.171368 -28.628052 -15.054982 -8.878942 58.984016 4.326163 4.472494 1.730161 17.727293 1.202559 
29.622501 47.919041 -39.392384 -7.708903 -1.142221 39.255592 23.711771 -13.962650 11.282504 -5.176883 -0.913893 4.196692 -1.382863 -18.033766 -19.256781 6.368743 40.764839 -38.498577 1.452834 -1.250150 0.768655 -46.982922 -14.742474 -0.479749 -64.886986 10.178159 13.546916 6.992188 16.005859 -41.149654 -6.408587 0.914528 1.823621 17.932348 59.775803 -66.602226 40.118698 -4.914919 3.514720 -7.001954 -15.996095 23.330078 -28.169981 2.938992 1.106758 52.519661 -4.640236 -4.017985 -21.338123 -0.660720 -0.220735 -29.868551 -15.875574 -7.963021 60.182926 4.267517 4.545037 4.282326 18.323490 0.421777 
29.649378 47.864082 -39.081650 -7.655319 -0.795230 38.765995 24.001463 -14.287450 11.119526 -5.050273 -0.952708 4.185610 -1.373529 -17.969736 -19.163506 5.258549 40.360813 -38.700771 1.452834 -1.250150 0.768655 -46.631367 -15.104712 -0.747115 -64.105003 10.152242 13.196669 6.992188 16.005859 -42.682854 -6.408587 0.914528 1.823621 17.645885 60.148708 -66.883926 40.169205 -4.933789 3.527967 -7.001954 -15.996095 23.056641 -27.762642 3.095554 1.797213 52.942192 -4.632590 -4.031238 -21.681381 -0.921349 -0.283826 -30.788799 -16.619459 -7.241433 61.008690 4.218745 4.607800 5.440033 19.107422 0.077176 
29.685616 47.795834 -38.732262 -7.452903 -0.325061 38.413017 24.164314 -14.838205 10.903786 -4.611959 -0.721285 4.163990 -1.329220 -18.490452 -19.153967 4.157135 40.791508 -39.095921 1.452834 -1.250150 0.768655 -44.904404 -13.731880 2.367081 -64.877708 10.181604 13.545190 6.992188 16.005859 -40.085197 -6.408587 0.914528 1.823621 16.913006 60.514084 -67.412407 40.118698 -4.914919 3.514720 -7.001954 -15.996095 22.470703 -27.341862 3.007527 2.430197 53.316116 -4.620990 -4.069735 -22.058674 -1.024816 -0.302817 -31.596598 -17.564722 -6.551732 61.480000 4.199178 4.634061 4.899428 20.123512 0.310876 
29.724569 47.735741 -38.392239 -7.139720 0.029404 38.246105 24.188686 -15.257504 10.559218 -4.388029 -0.474696 4.099149 -1.472387 -18.276308 -19.175526 3.364109 39.927021 -39.426723 1.452834 -1.250150 0.768655 -45.515747 -15.449239 -0.009467 -63.643913 10.130736 12.992954 6.992188 16.005859 -42.438709 -6.408587 0.914528 1.823621 16.953648 60.269726 -62.626484 40.776501 -5.164768 3.746546 -7.001954 -15.996095 26.279297 -27.150955 2.899243 2.907418 53.691036 -4.591670 -4.099215 -22.333399 -1.226609 -0.345212 -32.387615 -18.599817 -6.048223 61.529472 4.189376 4.639957 3.327605 20.415203 0.902490 
29.759901 47.695278 -38.076668 -6.822179 0.293341 38.134689 24.154388 -15.510127 10.219872 -4.456298 -0.451382 4.021320 -1.065170 -18.120089 -19.213100 2.526168 39.659512 -39.654819 1.452834 -1.250150 0.768655 -45.370949 -16.299189 -1.456445 -62.752785 10.075245 12.589758 6.992188 16.005859 -43.942619 -6.408587 0.914528 1.823621 17.177135 60.063480 -59.767162 41.161472 -5.305052 3.879125 -7.001954 -15.996095 28.310549 -27.107677 2.880598 3.410492 54.103340 -4.591894 -4.136079 -22.513773 -1.499987 -0.451286 -33.043514 -19.538477 -5.551554 61.077286 4.218665 4.610406 2.079607 19.412169 1.250223 
29.793421 47.675652 -37.713387 -6.703042 0.483280 38.062374 24.091646 -15.633439 9.790087 -4.475910 -0.402883 3.903597 -0.544529 -18.558680 -19.107203 2.103192 40.588848 -39.495247 1.452834 -1.250150 0.768655 -44.842964 -16.720304 -2.301887 -61.948975 10.016644 12.236957 6.992188 16.005859 -45.065666 -6.408587 0.914528 1.823621 17.022976 60.855347 -64.159599 40.806400 -5.169892 3.745773 -7.001954 -15.996095 23.183596 -26.940676 3.104962 3.896819 54.547264 -4.554770 -4.164297 -22.660706 -1.920289 -0.610125 -33.128773 -20.151722 -5.135887 60.143723 4.267498 4.543503 0.214914 18.105589 1.720413 
29.810934 47.654510 -37.306625 -7.004766 0.320272 38.246666 24.164257 -15.131738 9.444712 -4.398085 -0.370804 3.775592 -0.622567 -18.504902 -18.965939 2.199214 40.363846 -39.155148 1.452834 -1.250150 0.768655 -44.158855 -17.463964 -2.885333 -61.027885 9.936264 11.830732 6.992188 16.005859 -45.719963 -6.408587 0.914528 1.823621 16.766365 61.735554 -69.724648 40.533325 -5.071542 3.659001 -7.001954 -15.996095 17.041016 -26.791271 3.836680 3.923206 55.000019 -4.533482 -4.201259 -22.806353 -2.484928 -0.821581 -32.439201 -20.144781 -5.107727 58.699669 4.327524 4.462136 -3.221229 16.814554 2.551505 
